<?xml version="1.0" encoding="UTF-8" standalone="no"?>
<svg
   xmlns:dc="http://purl.org/dc/elements/1.1/"
   xmlns:cc="http://creativecommons.org/ns#"
   xmlns:rdf="http://www.w3.org/1999/02/22-rdf-syntax-ns#"
   xmlns:svg="http://www.w3.org/2000/svg"
   xmlns="http://www.w3.org/2000/svg"
   xmlns:sodipodi="http://sodipodi.sourceforge.net/DTD/sodipodi-0.dtd"
   xmlns:inkscape="http://www.inkscape.org/namespaces/inkscape"
   width="120"
   height="120"
   viewBox="0 0 120 120"
   id="svg3336"
   version="1.1"
   inkscape:version="0.91 r13725"
   sodipodi:docname="app-icon-unicolor.svg"
   inkscape:export-filename="G:\_MyProjects\_MyNodeProjects\_Voltage\Circuit-Bench\media\app-icon.png"
   inkscape:export-xdpi="90"
   inkscape:export-ydpi="90">
  <metadata
     id="metadata3350">
    <rdf:RDF>
      <cc:Work
         rdf:about="">
        <dc:format>image/svg+xml</dc:format>
        <dc:type
           rdf:resource="http://purl.org/dc/dcmitype/StillImage" />
        <dc:title></dc:title>
      </cc:Work>
    </rdf:RDF>
  </metadata>
  <defs
     id="defs3348" />
  <sodipodi:namedview
     pagecolor="#ffffff"
     bordercolor="#666666"
     borderopacity="0.69803922"
     objecttolerance="10"
     gridtolerance="10"
     guidetolerance="10"
     inkscape:pageopacity="0"
     inkscape:pageshadow="2"
     inkscape:window-width="1536"
     inkscape:window-height="811"
     id="namedview3346"
     showgrid="false"
     inkscape:zoom="8.0000002"
     inkscape:cx="56.700012"
     inkscape:cy="58.808943"
     inkscape:window-x="-8"
     inkscape:window-y="-8"
     inkscape:window-maximized="1"
     inkscape:current-layer="g4168"
     borderlayer="false" />
  <rect
     width="120"
     height="121"
     id="rect3338"
     x="0"
     y="-0.99999958"
     style="opacity:0;fill:#000000;stroke:none" />
  <g
     id="g4168"
     transform="matrix(1.1326429,0,0,1.1119447,-0.55620126,97.369979)">
    <path
       style="opacity:1;fill:#000000;fill-opacity:1;fill-rule:nonzero;stroke:none;stroke-width:1;stroke-linecap:butt;stroke-linejoin:miter;stroke-miterlimit:4;stroke-dasharray:none;stroke-dashoffset:0"
       d="m 33.955241,-91.292099 z m 35.972694,16.10172 c -1.430087,0 -2.864294,0.07294 -4.219113,0.314493 l 4.439623,15.78723 c 12.343911,0.161017 22.359814,10.94917 22.359814,24.152581 0,13.283926 -10.161145,24.152587 -22.580324,24.152587 -2.935443,0 -5.717405,-0.649705 -8.276514,-1.77685 L 57.961537,3.22689 c 3.763387,1.368646 7.751404,2.091343 11.966398,2.091343 20.773899,0 37.633875,-18.033928 37.633875,-40.254308 0,-22.220375 -16.859976,-40.254303 -37.633875,-40.254303 z"
       id="path3344"
       inkscape:connector-curvature="0" />
    <path
       sodipodi:nodetypes="cccccccccscccc"
       inkscape:connector-curvature="0"
       id="path3360"
       d="m 12.745722,-29.68529 c -1.901096,0.01324 -9.2932326,0.184595 -11.0505096,0.205134 0.085855,-6.197572 -0.096153,-13.693037 0.00373,-19.621116 4.3270434,-0.0748 12.9953655,-0.148194 17.3688355,-0.137615 1.779495,6.199613 4.32817,23.105674 4.720193,24.165406 5.192296,-16.905646 10.716981,-32.526267 15.189123,-46.509507 6.353732,16.678606 7.681454,21.454116 12.422793,31.850828 1.700547,-0.04701 9.392944,-0.154748 11.22165,0.04014 4.12306,0.02861 5.096685,9.999279 -0.24614,10.117693 -1.859614,-0.04787 -1.531476,0.04676 -8.748899,0.08429 l -8.185104,0.0427 C 43.358295,-35.319794 43.095157,-35.995103 40.929928,-41.3189 37.759592,-32.158812 32.190087,-17.716845 24.893109,2.3221119 22.054344,-4.7888958 16.384473,-20.333484 12.745722,-29.68529 Z"
       style="fill:#000000;fill-opacity:1;stroke:none;stroke-width:1px;stroke-linecap:butt;stroke-linejoin:miter;stroke-opacity:1" />
    <ellipse
       ry="15.477223"
       rx="15.931885"
       cy="-35.307323"
       cx="67.017204"
       id="path4164"
       style="fill:#000000;fill-opacity:1" />
  </g>
</svg>
